<svg xmlns="http://www.w3.org/2000/svg" viewBox="0 0 512 512" width="512" height="512"><defs><filter id="a" x="-20%" y="-20%" width="140%" height="140%"><feGaussianBlur in="SourceAlpha" stdDeviation="4"/><feOffset dy="6" result="offsetblur"/><feComponentTransfer><feFuncA type="linear" slope=".2"/></feComponentTransfer><feMerge><feMergeNode/><feMergeNode in="SourceGraphic"/></feMerge></filter></defs><rect width="512" height="512" rx="110" ry="110" fill="#2c3e50"/><g fill="#1f2d3d" opacity=".7"><circle cx="60" cy="80" r="4"/><circle cx="450" cy="60" r="3"/><circle cx="430" cy="430" r="4"/><circle cx="80" cy="450" r="3"/><circle cx="256" cy="50" r="3"/><circle cx="40" cy="256" r="3"/><circle cx="472" cy="256" r="4"/><circle cx="380" cy="120" r="3"/><circle cx="130" cy="380" r="3"/></g><path d="M180 130q-15-20-5-35-20-10-5-30-10-15 10-20 15 10 8 30 17 10 7 30 10 15-10 25Zm76-20q-16-20-6-40-15-15 0-35-10-15 10-17 20 7 12 32 13 15-2 35 10 15-10 25Zm76 20q-14-20-4-35-16-10-3-30-7-15 13-20 14 10 7 30 15 10 5 30 10 15-10 25Z" fill="#fff" opacity=".25"/><g transform="translate(256 285)" stroke-linejoin="round" stroke-linecap="round" filter="url(#a)"><path d="M-180-110q180-90 360 0l-30 40Q0-150-150-70Z" fill="#c79f78" stroke="#1a1a1a" stroke-width="2"/><ellipse cx="-110" cy="-115" rx="10" ry="6" fill="#a8825e" opacity=".7"/><ellipse cx="-30" cy="-140" rx="8" ry="5" fill="#a8825e" opacity=".7"/><ellipse cx="60" cy="-138" rx="11" ry="6" fill="#a8825e" opacity=".7"/><ellipse cx="130" cy="-115" rx="9" ry="5" fill="#a8825e" opacity=".7"/><path d="M-160-78q48-22 85-5 38 18 75-5 37 23 75 5 37-17 85 5L0 205Z" fill="#ffd738" stroke="#1a1a1a" stroke-width="2"/><path d="M-158-78q-7 38 0 60 8 10 13-7 2-27 5-47Zm316 0q7 38 0 60-8 10-13-7-2-27-5-47Z" fill="#ffd738" stroke="#1a1a1a" stroke-width="2"/><path d="M-160-78q48-22 85-5 38 18 75-5 37 23 75 5 37-17 85 5l-22 28q-38-20-68-7-35 17-70-3-35 20-70 3-30-13-68 7Z" fill="#df3a30" stroke="#1a1a1a" stroke-width="2"/><circle cx="-30" cy="-30" r="4" fill="#ffe680" opacity=".9"/><circle cx="55" cy="40" r="3" fill="#ffe680" opacity=".9"/><circle cx="-60" cy="90" r="3" fill="#ffe680" opacity=".9"/><circle cx="10" cy="160" r="3" fill="#ffe680" opacity=".9"/><g stroke="#1a1a1a" stroke-width="2.5" fill="#a32924"><circle cx="-75" cy="-15" r="22"/><circle cx="20" cy="-20" r="22"/><circle cx="80" cy="20" r="20"/><circle cx="-40" cy="55" r="20"/><circle cx="35" cy="85" r="18"/><circle cx="-15" cy="135" r="15"/></g><g fill="#7a1e1a"><circle cx="-82" cy="-22" r="3"/><circle cx="-68" cy="-10" r="2.5"/><circle cx="-78" cy="-5" r="2"/><circle cx="13" cy="-27" r="3"/><circle cx="27" cy="-15" r="2.5"/><circle cx="18" cy="-10" r="2"/><circle cx="74" cy="14" r="2.5"/><circle cx="86" cy="25" r="2.5"/><circle cx="78" cy="28" r="2"/><circle cx="-46" cy="49" r="2.5"/><circle cx="-34" cy="60" r="2.5"/><circle cx="-42" cy="63" r="2"/><circle cx="30" cy="80" r="2.5"/><circle cx="40" cy="89" r="2"/><circle cx="-19" cy="131" r="2"/><circle cx="-11" cy="139" r="2"/></g><g fill="#3d6b2f"><circle cx="-105" cy="20" r="2"/><circle cx="-100" cy="22" r="1.5"/><circle cx="60" cy="-35" r="1.8"/><circle cx="65" cy="-32" r="1.5"/><circle cx="-25" cy="-5" r="1.8"/><circle cx="50" cy="115" r="1.8"/><circle cx="-55" cy="115" r="1.5"/><circle cy="100" r="1.8"/><circle cx="-20" cy="180" r="1.5"/></g></g></svg>
